<svg xmlns="http://www.w3.org/2000/svg" viewBox="0 0 1614.42 1529.66"><defs><style>.cls-1{fill:#fff;stroke:#000;}</style></defs><title>Asset 2</title><g id="Layer_2" data-name="Layer 2"><g id="svg2"><path class="cls-1" d="M704.95,151.29c-295,149.57-515.27,343.95-199.46,347.53S1035.3,515,1035.3,515l172.45,74.26-633.7,422.18s-170.37,534,153.75,517.35,324.12-359.44,324.12-359.44L896.1,1034.29l608.77-482s305.42-513.35-106-454.07-494.49,22.22-546.44-62.1S626,39.17,422.38,73.4-36.79,308,258.24,236.9,156.43,519,156.43,519L.6,878.46l151.67,133L291.48,803.66l218.16,31.17s-256.71-60-249.32-242.59S370.44,242.71,443.16,208.41s91.42-17.6,91.42-17.6l-18.7-92.6-114.27,24L686.25,74.37l87.26,45.42Z"/></g></g></svg>