<svg xmlns="http://www.w3.org/2000/svg" viewBox="0 0 777.53 504.64"><defs><style>.cls-1{fill:#fff;stroke:#000;}</style></defs><title>path56</title><g id="Layer_2" data-name="Layer 2"><g id="svg2"><path id="path56" class="cls-1" d="M.54,41.17C1.42,51.85,3.17,63.45,6.24,69c0,0-6.36,21.89,9.18,45.2,0,0-.71,12.71,2.12,18.36,0,0,7.06,14.83,15.54,16.24,6.85,1.15,22.26,6.57,39.67,9,0,0,30.25,24.86,24.6,47.46,0,0-.71,29-7.06,31.78,0,0,20.48-19.78,3.53,9.89l-7.77,33.19s45.2-38.14,17.66-5.65L86.05,320.39s34.61-32.49,21.89-17.66l-5.65,15.54s76.28-48,21.89,4.24c0,0,14.13-6.36,21.89-1.41,0,0,12-2.12,10.59.71,0,0-36.73,18.36-43.08,50.85,0,0,14.83-17.66,9.18,1.41l.71,20.48s7.06-38.14,6.36,28.25c0,0,33.9-31.78,13.42,4.94V457.4s26.84-29,15.54-6.36c0,0,17.66-15.54,10.59,11.3,0,0-1.41,18.36,6.36-1.41,0,0,28.25-54,17.66-7.77,0,0-1.41,33.9,7.06,7.77a45,45,0,0,0,17,31.08s-2.12-89.69,20.48-26.13l7.06,29s4.94-16.24,4.24-25.43l14.13,14.13s26.84-40.26,21.19-17c0,0-13.42,28.25-10.59,36.73,0,0,29.66-61.44,31.78-64.27,0,0-3.53,74.86,15.54,11.3,0,0,9.89,21.19,4.94,29,0,0,14.13-14.13,12.71-19.78,0,0,8.12-14.48,13.07,9.53,0,0,3.18,16.6,6,10.95,0,0,7.06,42.38,9.18,2.12,0,0,2.83-24-9.89-44.49,0,0,1.41-5.65-3.53-12.71,0,0,24,38.14,11.3-12.71,0,0,19.78,14.13,21.9,14.13,0,0-24-41-8.48-32.49,0,0-9.18-18.36,22.6,2.83,0,0-28.25-28.25,2.83-11.3,0,0,14.12,11.3.71-6.36,0,0-25.43-28.25,13.42,3.53,0,0,20.48,29,21.89,33.9,0,0-17.66-51.56-25.43-56.5,0,0,14.83-64.27,87.58-36.73,0,0,12,30.37,19.78-2.12,0,0,22.6-11.3,42.38,37.43,0,0,7.06-24,5.65-29,0,0,12,2.12,10.59,0,0,0,23.31,7.77,25.43,6.36,0,0,12,12,12.71,5.65,0,0,16.24,4.94,12.71-1.41,0,0,15.54,27.54,16.24,33.9l4.24-24.72,3.53,4.94s2.83-13.42,1.41-15.54,35.31,12,43.79,48.73L704,402.31s10.59-26.13,7.77-33.19c0,0,9.18,1.41,9.89,9.18,0,0,7.06-41-1.41-51.56,0,0,7.77-1.41,9.89,4.94V319s12.71,1.41,12.71-2.83c0,0,7.77-7.06,11.3,1.41,0,0-21.89-62.15,10.59-28.25,0,0,12.71,19.07,6.36-14.13s-13.42-36-4.94-36.73c0,0,1.41-6.36-2.12-9.18s2.12,0,2.12,0,8.48,7.06-.71-31.78c0,0,11.3,2.83-9.89-48.73,0,0,4.94-4.24-2.12-19.07,0,0,14.13,7.77,19.07,4.94,0,0-.71-2.83-6.36-9.89,0,0-38.14-96.76-2.12-57.91,0,0,20.92,23.92,9.62-16.33,0,0-16.09-42.39-14.71-50L.54,41.17Z"/></g></g></svg>